# xmcd CD database file
#
# Track frame offsets:
#	150
#	17534
#	37446
#	55816
#	76159
#	93970
#	109882
#	125596
#	143435
#	159313
#	177742
#	193390
#
# Disc length: 2853 seconds
#
# Revision: 1
# Processed by: cddbd v1.5.2PL0 Copyright (c) Steve Scherf et al.
# Submitted via: CDex 1.86
#
DISCID=a20b230c
DTITLE=Graeme Connors - Kindred Spirit
DYEAR=2013
DGENRE=Country
TTITLE0=Play Mumma Play
TTITLE1=Dotted Line
TTITLE2=Flesh and Blood
TTITLE3=Lost on the River
TTITLE4=Love I Leave Behind, The
TTITLE5=Sounds Like Summer
TTITLE6=Christmas in Melbourne
TTITLE7=She Flew Away
TTITLE8=Nothing Comes Easy
TTITLE9=For the Good of the Nation
TTITLE10=Shine Like Ggold
TTITLE11=Capricorn Dancer
EXTD=YEAR: 2013
EXTT0=
EXTT1=
EXTT2=
EXTT3=
EXTT4=
EXTT5=
EXTT6=
EXTT7=
EXTT8=
EXTT9=
EXTT10=
EXTT11=
PLAYORDER=
